<?xml version="1.0" encoding="utf-8"?>
<!-- Generator: Adobe Illustrator 24.1.1, SVG Export Plug-In . SVG Version: 6.00 Build 0)  -->
<svg version="1.1" id="Layer_1" xmlns="http://www.w3.org/2000/svg" xmlns:xlink="http://www.w3.org/1999/xlink" x="0px" y="0px"
	 viewBox="0 0 512 512" style="enable-background:new 0 0 512 512;" xml:space="preserve">
<g>
	<circle cx="149.33" cy="442.67" r="42.67"/>
	<circle cx="448" cy="442.67" r="42.67"/>
	<path d="M170.67,165.33h106.67c11.78,0,21.33,9.55,21.33,21.33v106.67c0,11.78-9.55,21.33-21.33,21.33H170.67
		c-11.78,0-21.33-9.55-21.33-21.33V186.67C149.33,174.89,158.89,165.33,170.67,165.33z"/>
	<path d="M352,165.33h106.67c11.78,0,21.33,9.55,21.33,21.33v106.67c0,11.78-9.55,21.33-21.33,21.33H352
		c-11.78,0-21.33-9.55-21.33-21.33V186.67C330.67,174.89,340.22,165.33,352,165.33z"/>
	<path d="M256,26.67h128c11.78,0,21.33,9.55,21.33,21.33v64c0,11.78-9.55,21.33-21.33,21.33H256c-11.78,0-21.33-9.55-21.33-21.33V48
		C234.67,36.22,244.22,26.67,256,26.67z"/>
	<path d="M490.67,346.67H117.33v-256l-0.19-0.88l0.19-0.9c-0.02-16.69-13.54-30.21-30.23-30.23H21.33C9.55,58.67,0,68.22,0,80
		s9.55,21.33,21.33,21.33h53.33v245.33c0,23.56,19.1,42.67,42.67,42.67h373.33c11.78,0,21.33-9.55,21.33-21.33
		S502.45,346.67,490.67,346.67z"/>
</g>
</svg>
